<svg width="366" height="53" viewBox="0 0 366 53" fill="none" xmlns="http://www.w3.org/2000/svg">
<path d="M17.5211 6.90181L20.9439 0L42.0421 42.5331L8.99202 24.3247L11.7696 18.7695L27.6213 27.5511L17.5211 6.90181Z" fill="white"/>
<path d="M7.50462 27.545L12.9195 30.4629L6.9018 42.6954H-6.91248e-06L7.50462 27.545Z" fill="white"/>
<path d="M72.7319 2.29557H79.9014L94.4119 40H86.8139L83.8718 31.8593H68.79L65.7908 40H58.1642L72.7319 2.29557ZM71.1323 25.5466H81.5296L76.3595 10.9219H76.2738L71.1323 25.5466ZM109.89 34.9156C111.128 34.9156 112.137 34.7061 112.918 34.2872C113.699 33.8683 114.213 33.5541 114.46 33.3446L117.831 38.3433C117.564 38.5528 117.069 38.8479 116.345 39.2288C115.622 39.6096 114.698 39.9429 113.575 40.2285C112.47 40.5332 111.204 40.6855 109.776 40.6855C107.3 40.6855 105.082 40.1904 103.12 39.2002C101.159 38.1909 99.607 36.7628 98.4644 34.9156C97.3409 33.0494 96.7791 30.831 96.7791 28.2602C96.7791 25.6704 97.3409 23.4519 98.4644 21.6048C99.607 19.7577 101.159 18.339 103.12 17.3488C105.082 16.3586 107.3 15.8635 109.776 15.8635C111.185 15.8635 112.432 16.0158 113.518 16.3205C114.622 16.6252 115.546 16.9774 116.288 17.3773C117.031 17.7582 117.545 18.0724 117.831 18.32L114.375 23.3472C114.241 23.1949 113.984 22.9854 113.603 22.7188C113.222 22.4522 112.718 22.2047 112.089 21.9761C111.48 21.7476 110.747 21.6334 109.89 21.6334C108.843 21.6334 107.843 21.9095 106.891 22.4617C105.958 23.014 105.196 23.7852 104.606 24.7754C104.015 25.7656 103.72 26.9272 103.72 28.2602C103.72 29.5932 104.015 30.7643 104.606 31.7736C105.196 32.7638 105.958 33.535 106.891 34.0873C107.843 34.6395 108.843 34.9156 109.89 34.9156ZM133.991 34.9156C135.229 34.9156 136.238 34.7061 137.019 34.2872C137.799 33.8683 138.314 33.5541 138.561 33.3446L141.932 38.3433C141.665 38.5528 141.17 38.8479 140.446 39.2288C139.723 39.6096 138.799 39.9429 137.676 40.2285C136.571 40.5332 135.305 40.6855 133.877 40.6855C131.401 40.6855 129.183 40.1904 127.221 39.2002C125.26 38.1909 123.708 36.7628 122.565 34.9156C121.442 33.0494 120.88 30.831 120.88 28.2602C120.88 25.6704 121.442 23.4519 122.565 21.6048C123.708 19.7577 125.26 18.339 127.221 17.3488C129.183 16.3586 131.401 15.8635 133.877 15.8635C135.286 15.8635 136.533 16.0158 137.618 16.3205C138.723 16.6252 139.647 16.9774 140.389 17.3773C141.132 17.7582 141.646 18.0724 141.932 18.32L138.475 23.3472C138.342 23.1949 138.085 22.9854 137.704 22.7188C137.323 22.4522 136.819 22.2047 136.19 21.9761C135.581 21.7476 134.848 21.6334 133.991 21.6334C132.943 21.6334 131.944 21.9095 130.992 22.4617C130.059 23.014 129.297 23.7852 128.707 24.7754C128.116 25.7656 127.821 26.9272 127.821 28.2602C127.821 29.5932 128.116 30.7643 128.707 31.7736C129.297 32.7638 130.059 33.535 130.992 34.0873C131.944 34.6395 132.943 34.9156 133.991 34.9156ZM152.864 27.7746C152.864 29.8693 153.283 31.5451 154.121 32.8019C154.959 34.0397 156.311 34.6585 158.177 34.6585C160.063 34.6585 161.424 34.0397 162.262 32.8019C163.1 31.5451 163.519 29.8693 163.519 27.7746V16.549H170.66V28.603C170.66 31.0214 170.174 33.1446 169.203 34.9727C168.232 36.7818 166.813 38.1909 164.947 39.2002C163.1 40.1904 160.843 40.6855 158.177 40.6855C155.53 40.6855 153.274 40.1904 151.408 39.2002C149.561 38.1909 148.151 36.7818 147.18 34.9727C146.209 33.1446 145.723 31.0214 145.723 28.603V16.549H152.864V27.7746ZM195.921 40H187.78L174.212 2.29557H182.238L191.865 31.0309L201.491 2.29557H209.517L195.921 40ZM215.677 29.8884C215.734 30.9547 216.019 31.9069 216.534 32.7448C217.048 33.5826 217.79 34.2396 218.762 34.7157C219.752 35.1917 220.932 35.4298 222.303 35.4298C223.541 35.4298 224.627 35.2774 225.56 34.9727C226.512 34.6681 227.312 34.2967 227.959 33.8587C228.626 33.4017 229.121 32.9637 229.444 32.5448L232.444 37.0008C231.91 37.6673 231.196 38.2862 230.301 38.8574C229.425 39.4097 228.302 39.8477 226.931 40.1714C225.579 40.5142 223.884 40.6855 221.846 40.6855C219.276 40.6855 217.019 40.1809 215.077 39.1716C213.134 38.1624 211.621 36.7056 210.535 34.8014C209.45 32.8971 208.907 30.631 208.907 28.0031C208.907 25.718 209.393 23.6614 210.364 21.8333C211.335 19.9862 212.744 18.5294 214.591 17.463C216.457 16.3966 218.695 15.8635 221.304 15.8635C223.76 15.8635 225.883 16.3395 227.673 17.2917C229.483 18.2247 230.882 19.5958 231.872 21.4049C232.863 23.2139 233.358 25.4229 233.358 28.0317C233.358 28.184 233.348 28.4982 233.329 28.9743C233.329 29.4313 233.31 29.736 233.272 29.8884H215.677ZM226.559 25.4038C226.54 24.7945 226.35 24.1375 225.988 23.4329C225.645 22.7283 225.103 22.1285 224.36 21.6334C223.617 21.1383 222.627 20.8907 221.389 20.8907C220.152 20.8907 219.133 21.1287 218.333 21.6048C217.552 22.0809 216.962 22.6712 216.562 23.3758C216.162 24.0613 215.934 24.7373 215.877 25.4038H226.559ZM245.569 40H238.285V0.695988H245.569V40ZM263.241 40.6855C260.746 40.6855 258.518 40.1523 256.557 39.086C254.614 38.0196 253.091 36.5628 251.986 34.7157C250.882 32.8495 250.33 30.7262 250.33 28.3459C250.33 25.9656 250.882 23.8423 251.986 21.9761C253.091 20.0909 254.614 18.6056 256.557 17.5202C258.518 16.4157 260.746 15.8635 263.241 15.8635C265.754 15.8635 267.973 16.4157 269.896 17.5202C271.819 18.6056 273.324 20.0909 274.409 21.9761C275.494 23.8423 276.037 25.9656 276.037 28.3459C276.037 30.7262 275.494 32.8495 274.409 34.7157C273.324 36.5628 271.819 38.0196 269.896 39.086C267.973 40.1523 265.754 40.6855 263.241 40.6855ZM263.241 34.6585C264.44 34.6585 265.478 34.3919 266.354 33.8587C267.249 33.3065 267.935 32.5543 268.411 31.6022C268.906 30.631 269.153 29.5361 269.153 28.3173C269.153 27.0986 268.906 26.0037 268.411 25.0325C267.935 24.0613 267.249 23.2996 266.354 22.7474C265.478 22.1761 264.44 21.8904 263.241 21.8904C262.041 21.8904 260.993 22.1761 260.098 22.7474C259.223 23.2996 258.537 24.0613 258.042 25.0325C257.547 26.0037 257.299 27.0986 257.299 28.3173C257.299 29.5361 257.547 30.631 258.042 31.6022C258.537 32.5543 259.223 33.3065 260.098 33.8587C260.993 34.3919 262.041 34.6585 263.241 34.6585ZM292.989 34.9156C294.227 34.9156 295.236 34.7061 296.017 34.2872C296.798 33.8683 297.312 33.5541 297.56 33.3446L300.93 38.3433C300.664 38.5528 300.169 38.8479 299.445 39.2288C298.721 39.6096 297.798 39.9429 296.674 40.2285C295.57 40.5332 294.303 40.6855 292.875 40.6855C290.4 40.6855 288.181 40.1904 286.22 39.2002C284.258 38.1909 282.706 36.7628 281.564 34.9156C280.44 33.0494 279.879 30.831 279.879 28.2602C279.879 25.6704 280.44 23.4519 281.564 21.6048C282.706 19.7577 284.258 18.339 286.22 17.3488C288.181 16.3586 290.4 15.8635 292.875 15.8635C294.284 15.8635 295.532 16.0158 296.617 16.3205C297.722 16.6252 298.645 16.9774 299.388 17.3773C300.13 17.7582 300.645 18.0724 300.93 18.32L297.474 23.3472C297.341 23.1949 297.084 22.9854 296.703 22.7188C296.322 22.4522 295.817 22.2047 295.189 21.9761C294.58 21.7476 293.846 21.6334 292.989 21.6334C291.942 21.6334 290.942 21.9095 289.99 22.4617C289.057 23.014 288.295 23.7852 287.705 24.7754C287.115 25.7656 286.82 26.9272 286.82 28.2602C286.82 29.5932 287.115 30.7643 287.705 31.7736C288.295 32.7638 289.057 33.535 289.99 34.0873C290.942 34.6395 291.942 34.9156 292.989 34.9156ZM305.296 40V16.549H312.523V40H305.296ZM309.009 10.4934C307.81 10.4934 306.791 10.0745 305.953 9.23661C305.134 8.39874 304.725 7.399 304.725 6.2374C304.725 5.0758 305.144 4.06654 305.982 3.20962C306.819 2.3527 307.829 1.92424 309.009 1.92424C309.79 1.92424 310.504 2.12419 311.152 2.52408C311.799 2.90493 312.323 3.41909 312.723 4.06654C313.123 4.71398 313.323 5.4376 313.323 6.2374C313.323 7.399 312.894 8.39874 312.037 9.23661C311.199 10.0745 310.19 10.4934 309.009 10.4934ZM317.123 16.549H321.35V6.92293H328.548V16.549H334.09V22.576H328.548V31.0595C328.548 32.183 328.729 33.059 329.091 33.6874C329.453 34.2967 330.024 34.6014 330.805 34.6014C331.395 34.6014 331.881 34.4872 332.262 34.2586C332.643 34.0111 332.871 33.8397 332.947 33.7445L335.518 38.9431C335.404 39.0574 335.032 39.2573 334.404 39.543C333.795 39.8286 333.004 40.0857 332.033 40.3142C331.081 40.5618 330.005 40.6855 328.806 40.6855C326.654 40.6855 324.873 40.0666 323.464 38.8289C322.055 37.5721 321.35 35.6297 321.35 33.0018V22.576H317.123V16.549ZM350.176 33.6302L357.117 16.549H364.287L348.263 51.8826H340.979L346.377 40L336.637 16.549H343.892L350.176 33.6302Z" fill="white"/>
</svg>
